<svg xmlns="http://www.w3.org/2000/svg" viewBox="0 0 504 403.09"><defs><style>.cls-1{fill:#ffc800;}</style></defs><g id="Layer_2" data-name="Layer 2"><g id="Layer_1-2" data-name="Layer 1"><path class="cls-1" d="M483.47,141.87A144.57,144.57,0,0,0,432,91.27v-79A216.37,216.37,0,0,0,252,28.91,216.52,216.52,0,0,0,72,12.29v79a144,144,0,0,0,0,249.46A144.39,144.39,0,0,0,192,351.8q3.39,4.18,7,8.2a216.44,216.44,0,0,0,53,43.09A216.44,216.44,0,0,0,305,360q3.6-4,7-8.2a144,144,0,0,0,171.5-209.93Zm-51.49,76A72,72,0,0,1,288,216a143.56,143.56,0,0,1-36,95.23A143.56,143.56,0,0,1,216,216a72,72,0,0,1-144,1.86c0-.62,0-1.24,0-1.86s0-1.24,0-1.86A72,72,0,0,1,144,144V72a143.84,143.84,0,0,1,48,8.2,215.6,215.6,0,0,0-35,61.67c-.38,1-.75,2.08-1.11,3.12A72,72,0,0,1,216,216a143.56,143.56,0,0,1,36-95.23A143.56,143.56,0,0,1,288,216a72,72,0,0,1,60.05-71c-.36-1-.73-2.09-1.11-3.12A215.6,215.6,0,0,0,312,80.2,143.84,143.84,0,0,1,360,72v72a72,72,0,0,1,72,70.14c0,.62,0,1.24,0,1.86S432,217.24,432,217.86Z"/></g></g></svg>